<mxfile host="app.diagrams.net" modified="2020-10-19T20:47:22.582Z" agent="5.0 (Windows)" etag="_oGPUrabBwbSqEBIfj2_" version="13.8.0" type="github">
  <diagram name="Page-1" id="efa7a0a1-bf9b-a30e-e6df-94a7791c09e9">
    <mxGraphModel dx="914" dy="545" grid="1" gridSize="10" guides="1" tooltips="1" connect="1" arrows="1" fold="1" page="1" pageScale="1" pageWidth="826" pageHeight="1169" background="#ffffff" math="0" shadow="0">
      <root>
        <mxCell id="0" />
        <mxCell id="1" parent="0" />
        <mxCell id="V7TPFkDdLVlKVWKJCsqQ-114" value="&lt;p style=&quot;margin: 0px ; margin-top: 4px ; text-align: center ; text-decoration: underline&quot;&gt;&lt;strong&gt;Producto&lt;/strong&gt;&lt;/p&gt;&lt;hr&gt;&amp;nbsp; + &lt;u&gt;idProducto&lt;/u&gt;&lt;p style=&quot;margin: 0px ; margin-left: 8px&quot;&gt;&lt;b&gt;- idProvedor&lt;/b&gt;&lt;br&gt;Nombre&lt;/p&gt;&amp;nbsp;&amp;nbsp; Descripción&lt;p style=&quot;margin: 0px ; margin-left: 8px&quot;&gt;Precio&lt;br&gt;&lt;/p&gt;&lt;p style=&quot;margin: 0px ; margin-left: 8px&quot;&gt;Cantidad&lt;/p&gt;" style="verticalAlign=top;align=left;overflow=fill;fontSize=12;fontFamily=Helvetica;html=1;strokeColor=#003366;shadow=1;fillColor=#D4E1F5;fontColor=#003366" parent="1" vertex="1">
          <mxGeometry x="130.0000000000001" y="210.00000000000045" width="160" height="120" as="geometry" />
        </mxCell>
        <mxCell id="McaFOX8oFUhhFu_hKYQy-92" value="&lt;p style=&quot;margin: 0px ; margin-top: 4px ; text-align: center ; text-decoration: underline&quot;&gt;&lt;strong&gt;Proveedor&lt;br&gt;&lt;/strong&gt;&lt;/p&gt;&lt;hr&gt;&amp;nbsp; + &lt;u&gt;idProvedor&lt;/u&gt;&lt;p style=&quot;margin: 0px ; margin-left: 8px&quot;&gt;- &lt;b&gt;idProducto&lt;/b&gt;&lt;br&gt;&lt;/p&gt;&lt;p style=&quot;margin: 0px ; margin-left: 8px&quot;&gt;&amp;nbsp;Nombre&lt;/p&gt;&amp;nbsp;&amp;nbsp; Descripción&lt;p style=&quot;margin: 0px ; margin-left: 8px&quot;&gt;&lt;br&gt;&lt;/p&gt;" style="verticalAlign=top;align=left;overflow=fill;fontSize=12;fontFamily=Helvetica;html=1;strokeColor=#003366;shadow=1;fillColor=#D4E1F5;fontColor=#003366" vertex="1" parent="1">
          <mxGeometry x="560" y="200" width="160" height="120" as="geometry" />
        </mxCell>
        <mxCell id="McaFOX8oFUhhFu_hKYQy-93" value="Distribuir" style="rhombus;whiteSpace=wrap;html=1;fillColor=#d5e8d4;strokeColor=#82b366;" vertex="1" parent="1">
          <mxGeometry x="390" y="230" width="80" height="80" as="geometry" />
        </mxCell>
        <mxCell id="McaFOX8oFUhhFu_hKYQy-95" value="" style="endArrow=none;html=1;entryX=0;entryY=0.5;entryDx=0;entryDy=0;exitX=1;exitY=0.5;exitDx=0;exitDy=0;" edge="1" parent="1" source="V7TPFkDdLVlKVWKJCsqQ-114" target="McaFOX8oFUhhFu_hKYQy-93">
          <mxGeometry width="50" height="50" relative="1" as="geometry">
            <mxPoint x="250" y="270" as="sourcePoint" />
            <mxPoint x="320" y="240" as="targetPoint" />
          </mxGeometry>
        </mxCell>
        <mxCell id="McaFOX8oFUhhFu_hKYQy-96" value="" style="endArrow=none;html=1;entryX=1;entryY=0.5;entryDx=0;entryDy=0;exitX=0.006;exitY=0.592;exitDx=0;exitDy=0;exitPerimeter=0;" edge="1" parent="1" source="McaFOX8oFUhhFu_hKYQy-92" target="McaFOX8oFUhhFu_hKYQy-93">
          <mxGeometry width="50" height="50" relative="1" as="geometry">
            <mxPoint x="270" y="290" as="sourcePoint" />
            <mxPoint x="320" y="240" as="targetPoint" />
          </mxGeometry>
        </mxCell>
        <mxCell id="McaFOX8oFUhhFu_hKYQy-98" value="N:1" style="text;html=1;strokeColor=none;fillColor=none;align=center;verticalAlign=middle;whiteSpace=wrap;rounded=0;" vertex="1" parent="1">
          <mxGeometry x="410" y="210" width="40" height="20" as="geometry" />
        </mxCell>
        <mxCell id="McaFOX8oFUhhFu_hKYQy-99" value="&lt;p style=&quot;margin: 0px ; margin-top: 4px ; text-align: center ; text-decoration: underline&quot;&gt;&lt;strong&gt;productoHistorico&lt;/strong&gt;&lt;/p&gt;&lt;hr&gt;&lt;div&gt;&lt;b&gt;&amp;nbsp; + &lt;/b&gt;&lt;u&gt;Fecha&lt;/u&gt;&lt;/div&gt;&lt;b&gt;&amp;nbsp; - idProducto&lt;/b&gt;&lt;div&gt;&amp;nbsp;&amp;nbsp; cantidad&lt;br&gt;&lt;/div&gt;&lt;b&gt;&lt;/b&gt;&lt;p style=&quot;margin: 0px ; margin-left: 8px&quot;&gt;&lt;br&gt;&lt;/p&gt;" style="verticalAlign=top;align=left;overflow=fill;fontSize=12;fontFamily=Helvetica;html=1;strokeColor=#003366;shadow=1;fillColor=#D4E1F5;fontColor=#003366" vertex="1" parent="1">
          <mxGeometry x="130" y="480" width="160" height="85" as="geometry" />
        </mxCell>
        <mxCell id="McaFOX8oFUhhFu_hKYQy-103" value="&lt;div&gt;Cambios &lt;br&gt;&lt;/div&gt;&lt;div&gt;en&lt;br&gt;&lt;/div&gt;&lt;div&gt;Stock&lt;/div&gt;" style="rhombus;whiteSpace=wrap;html=1;fillColor=#d5e8d4;strokeColor=#82b366;" vertex="1" parent="1">
          <mxGeometry x="170" y="370" width="80" height="80" as="geometry" />
        </mxCell>
        <mxCell id="McaFOX8oFUhhFu_hKYQy-105" value="" style="endArrow=none;html=1;exitX=0.5;exitY=0;exitDx=0;exitDy=0;" edge="1" parent="1" source="McaFOX8oFUhhFu_hKYQy-103">
          <mxGeometry width="50" height="50" relative="1" as="geometry">
            <mxPoint x="330" y="430" as="sourcePoint" />
            <mxPoint x="210" y="331" as="targetPoint" />
          </mxGeometry>
        </mxCell>
        <mxCell id="McaFOX8oFUhhFu_hKYQy-106" value="" style="endArrow=none;html=1;exitX=0.5;exitY=1;exitDx=0;exitDy=0;entryX=0.5;entryY=0;entryDx=0;entryDy=0;" edge="1" parent="1" source="McaFOX8oFUhhFu_hKYQy-103" target="McaFOX8oFUhhFu_hKYQy-99">
          <mxGeometry width="50" height="50" relative="1" as="geometry">
            <mxPoint x="330" y="430" as="sourcePoint" />
            <mxPoint x="380" y="380" as="targetPoint" />
          </mxGeometry>
        </mxCell>
        <mxCell id="McaFOX8oFUhhFu_hKYQy-107" value="&lt;div&gt;1:N&lt;/div&gt;" style="text;html=1;strokeColor=none;fillColor=none;align=center;verticalAlign=middle;whiteSpace=wrap;rounded=0;rotation=1;" vertex="1" parent="1">
          <mxGeometry x="260" y="400" width="40" height="20" as="geometry" />
        </mxCell>
        <mxCell id="McaFOX8oFUhhFu_hKYQy-108" value="(1,N)" style="text;html=1;strokeColor=none;fillColor=none;align=center;verticalAlign=middle;whiteSpace=wrap;rounded=0;" vertex="1" parent="1">
          <mxGeometry x="290" y="240" width="40" height="20" as="geometry" />
        </mxCell>
        <mxCell id="McaFOX8oFUhhFu_hKYQy-109" value="(1,1)" style="text;html=1;strokeColor=none;fillColor=none;align=center;verticalAlign=middle;whiteSpace=wrap;rounded=0;" vertex="1" parent="1">
          <mxGeometry x="520" y="240" width="40" height="20" as="geometry" />
        </mxCell>
        <mxCell id="McaFOX8oFUhhFu_hKYQy-110" value="&lt;div&gt;Un proveedor puede distribuir muchos productos diferentes.&lt;/div&gt;&lt;div&gt;Un producto solo puede pertenecer a un único proveedor&lt;br&gt;&lt;/div&gt;" style="text;html=1;strokeColor=#d6b656;fillColor=#fff2cc;align=center;verticalAlign=middle;whiteSpace=wrap;rounded=0;" vertex="1" parent="1">
          <mxGeometry x="330" y="120" width="180" height="60" as="geometry" />
        </mxCell>
        <mxCell id="McaFOX8oFUhhFu_hKYQy-111" value="(1,1)" style="text;html=1;strokeColor=none;fillColor=none;align=center;verticalAlign=middle;whiteSpace=wrap;rounded=0;" vertex="1" parent="1">
          <mxGeometry x="220" y="340" width="40" height="20" as="geometry" />
        </mxCell>
        <mxCell id="McaFOX8oFUhhFu_hKYQy-112" value="(1,N)" style="text;html=1;strokeColor=none;fillColor=none;align=center;verticalAlign=middle;whiteSpace=wrap;rounded=0;" vertex="1" parent="1">
          <mxGeometry x="220" y="460" width="40" height="20" as="geometry" />
        </mxCell>
        <mxCell id="McaFOX8oFUhhFu_hKYQy-113" value="&lt;div&gt;Un producto puede tener Muchos cambios en la cantidad.&lt;br&gt;&lt;/div&gt;&lt;div&gt;El cambio en en la cantidad solo puede referirse a un producto&lt;/div&gt;&lt;div&gt;&lt;br&gt;&lt;/div&gt;" style="text;html=1;align=center;verticalAlign=middle;whiteSpace=wrap;rounded=0;fillColor=#fff2cc;strokeColor=#d6b656;" vertex="1" parent="1">
          <mxGeometry y="350" width="140" height="120" as="geometry" />
        </mxCell>
      </root>
    </mxGraphModel>
  </diagram>
</mxfile>
